<?xml version="1.0" standalone="no"?>
<!DOCTYPE svg PUBLIC "-//W3C//DTD SVG 20010904//EN"
 "http://www.w3.org/TR/2001/REC-SVG-20010904/DTD/svg10.dtd">
<svg version="1.0" xmlns="http://www.w3.org/2000/svg"
 width="500.000000pt" height="500.000000pt" viewBox="0 0 500.000000 500.000000"
 preserveAspectRatio="xMidYMid meet">
<metadata>
Created by potrace 1.11, written by Peter Selinger 2001-2013
</metadata>
<g transform="translate(0.000000,500.000000) scale(0.100000,-0.100000)"
fill="#000000" stroke="none">
<path d="M0 2500 l0 -2500 2500 0 2500 0 0 2500 0 2500 -2500 0 -2500 0 0
-2500z m3065 1209 c118 -109 141 -126 249 -179 65 -32 127 -67 138 -77 51 -46
62 -119 27 -190 -33 -67 -77 -97 -193 -129 -55 -15 -102 -28 -104 -29 -4 -3
-11 -189 -17 -463 -6 -286 -10 -306 -68 -361 -36 -33 -102 -38 -144 -12 -53
33 -65 70 -74 223 -4 76 -13 147 -19 158 -16 30 -47 33 -219 27 -184 -8 -215
-13 -206 -36 4 -9 9 -52 11 -96 5 -70 3 -85 -18 -125 -30 -59 -92 -93 -159
-87 -41 3 -47 1 -62 -24 -26 -46 -73 -69 -143 -69 -93 0 -150 48 -176 148 -5
20 -13 163 -16 317 l-7 279 -69 40 c-101 58 -199 154 -238 234 -30 60 -33 75
-33 157 0 70 4 99 20 130 31 63 49 55 137 -63 l77 -104 3 44 c2 31 8 44 20 46
10 2 74 -44 153 -109 l136 -111 324 4 c178 2 326 6 330 9 8 9 13 115 15 316 2
217 5 225 71 199 l43 -18 29 36 c16 20 34 36 40 36 7 0 71 -54 142 -121z
m-217 -1646 c5 -10 13 -44 16 -76 l7 -57 38 6 c48 8 122 -23 146 -60 20 -30
41 -163 31 -200 -5 -22 -12 -27 -34 -24 -30 3 -39 27 -41 111 -1 62 -35 100
-84 95 l-32 -3 -16 -93 c-17 -99 -26 -116 -55 -110 -16 3 -20 16 -26 73 -9 99
-11 331 -3 344 10 17 43 13 53 -6z m341 3 c8 -9 11 -43 9 -93 -3 -74 -4 -78
-27 -81 -13 -2 -28 2 -32 10 -13 20 -11 152 3 166 16 16 33 15 47 -2z m-1446
-66 c42 -85 45 -143 10 -210 -34 -66 -74 -90 -150 -90 -63 0 -83 7 -83 29 0
27 21 41 64 41 23 0 51 3 64 6 55 15 69 121 27 204 -29 57 -24 82 14 78 20 -2
32 -15 54 -58z m1670 -48 c31 -34 46 -74 36 -94 -15 -27 -41 -22 -71 14 -25
31 -28 32 -44 16 -21 -21 -13 -32 50 -73 66 -42 86 -65 92 -107 5 -30 2 -38
-30 -66 -44 -38 -88 -42 -146 -12 -52 26 -68 55 -45 80 17 19 18 19 64 -4 44
-21 81 -24 81 -6 0 9 -20 25 -100 83 -35 26 -46 40 -48 66 -4 41 14 87 42 106
29 21 99 19 119 -3z m-766 -32 c47 -28 59 -53 82 -169 23 -109 20 -131 -20
-131 -20 0 -33 22 -44 73 l-5 27 -39 -40 c-42 -44 -72 -50 -120 -25 -31 15
-71 86 -71 123 0 38 28 93 66 128 29 28 43 34 77 34 24 0 56 -8 74 -20z m-622
-28 c44 -31 43 -28 29 -161 -5 -45 -12 -61 -39 -88 -56 -56 -144 -43 -180 27
-22 43 -19 135 6 187 38 78 105 91 184 35z m153 11 l20 -28 24 23 c71 66 158
-20 162 -161 1 -38 -3 -52 -17 -61 -25 -15 -44 11 -58 86 -12 61 -34 92 -49
69 -4 -8 -13 -41 -20 -75 -15 -73 -34 -106 -60 -106 -20 0 -40 49 -40 99 0 14
-7 53 -16 88 -9 35 -13 70 -10 78 9 24 43 17 64 -12z m-804 -528 c32 -32 32
-87 0 -119 -9 -9 -32 -16 -55 -16 l-39 0 0 75 0 75 39 0 c22 0 46 -7 55 -15z
m171 -5 c11 -12 19 -36 19 -57 0 -65 -73 -96 -121 -51 -29 27 -31 80 -3 108
27 27 81 26 105 0z m152 3 c3 -8 -6 -10 -29 -7 -39 7 -60 -11 -60 -51 0 -33
19 -55 49 -55 25 0 45 31 25 38 -19 6 -14 22 8 22 15 0 20 -7 20 -28 0 -36
-16 -52 -52 -52 -36 0 -78 40 -78 73 0 13 10 36 21 51 17 22 28 26 57 24 19
-2 37 -8 39 -15z m124 -25 c18 -64 25 -65 39 -9 7 28 17 51 24 51 7 0 18 -23
25 -50 15 -57 26 -57 36 0 6 38 20 58 31 47 10 -10 -37 -147 -50 -147 -7 0
-18 24 -26 53 l-13 52 -17 -49 c-9 -28 -21 -51 -28 -54 -6 -2 -20 25 -31 63
-24 76 -25 85 -11 85 5 0 15 -19 21 -42z m268 15 c39 -85 51 -123 37 -123 -8
0 -17 11 -20 25 -5 21 -12 25 -41 25 -29 0 -36 -4 -41 -25 -3 -14 -12 -25 -20
-25 -11 0 -10 10 5 48 32 81 44 102 56 102 6 0 17 -12 24 -27z m91 -38 l0 -65
35 0 c19 0 35 -4 35 -10 0 -5 -20 -10 -45 -10 l-45 0 0 75 c0 43 4 75 10 75 6
0 10 -28 10 -65z m110 28 l0 -37 38 37 c49 48 78 49 32 2 l-34 -35 39 -40 c46
-47 26 -55 -21 -9 -35 34 -54 32 -54 -7 0 -13 -4 -24 -10 -24 -6 0 -10 32 -10
75 0 43 4 75 10 75 6 0 10 -17 10 -37z m175 -38 c0 -73 -1 -75 -24 -75 -20 0
-22 3 -13 12 7 7 12 35 12 63 0 28 -5 56 -12 63 -9 9 -7 12 13 12 23 0 24 -2
24 -75z m104 18 l41 -58 0 58 c0 31 4 57 10 57 6 0 10 -32 10 -75 0 -43 -4
-75 -10 -75 -6 0 -27 24 -48 52 l-37 53 -3 -53 c-2 -37 -7 -52 -18 -52 -11 0
-14 16 -14 75 0 94 13 97 69 18z m198 40 c3 -8 -6 -10 -29 -7 -39 7 -60 -11
-60 -51 0 -33 19 -55 49 -55 25 0 45 31 25 38 -19 6 -14 22 8 22 15 0 20 -7
20 -28 0 -35 -16 -52 -51 -52 -63 0 -98 73 -59 123 18 23 29 28 58 25 19 -2
37 -8 39 -15z m183 7 c15 -10 14 -11 -30 -13 -37 -3 -37 -20 -1 -38 50 -24 61
-47 35 -73 -20 -20 -68 -21 -84 -1 -12 14 -8 15 28 9 38 -6 42 -4 42 14 0 14
-10 24 -35 32 -37 12 -54 43 -35 65 14 17 58 19 80 5z m130 0 c0 -5 -16 -10
-35 -10 -28 0 -35 -4 -35 -20 0 -16 7 -20 30 -20 17 0 30 -4 30 -10 0 -5 -13
-10 -30 -10 -25 0 -30 -4 -30 -25 0 -22 4 -25 35 -25 19 0 35 -4 35 -10 0 -5
-20 -10 -45 -10 l-45 0 0 75 0 75 45 0 c25 0 45 -4 45 -10z m120 -5 c14 -16 6
-65 -11 -65 -5 0 2 -16 17 -35 36 -47 9 -47 -29 0 -35 44 -47 44 -47 0 0 -19
-4 -35 -10 -35 -6 0 -10 32 -10 75 l0 75 39 0 c22 0 44 -6 51 -15z m87 -42
l26 -58 25 58 c14 31 31 57 38 57 9 0 3 -24 -19 -75 -19 -48 -36 -75 -45 -73
-7 2 -26 34 -43 73 -33 80 -32 75 -18 75 5 0 22 -26 36 -57z m168 -18 c0 -68
-2 -75 -20 -75 -18 0 -20 7 -20 75 0 68 2 75 20 75 18 0 20 -7 20 -75z m145
65 c17 -11 10 -13 -37 -10 -26 1 -35 -4 -44 -24 -25 -54 19 -104 69 -77 13 7
23 7 27 2 7 -13 -27 -31 -59 -31 -37 0 -66 33 -66 75 0 59 62 96 110 65z m130
0 c0 -5 -16 -10 -35 -10 -28 0 -35 -4 -35 -20 0 -16 7 -20 30 -20 17 0 30 -4
30 -10 0 -5 -13 -10 -30 -10 -25 0 -30 -4 -30 -25 0 -22 4 -25 35 -25 19 0 35
-4 35 -10 0 -5 -22 -10 -50 -10 l-50 0 0 75 0 75 50 0 c28 0 50 -4 50 -10z"/>
<path d="M2915 3739 c-9 -13 -7 -15 41 -35 l39 -16 -29 31 c-32 33 -41 37 -51
20z"/>
<path d="M2800 3653 c0 -162 -14 -439 -22 -450 -7 -8 -72 -12 -226 -12 -309
-1 -595 -12 -607 -23 -6 -6 -10 -146 -10 -381 0 -415 2 -433 64 -474 60 -40
129 -23 167 41 15 24 19 56 22 146 2 63 9 121 15 128 22 27 113 65 202 83 52
11 156 22 245 26 252 10 268 -2 282 -215 10 -151 24 -198 62 -208 39 -9 59 -1
82 33 21 31 22 47 28 320 10 421 11 468 19 479 3 6 46 19 94 30 l88 18 -58 7
c-61 7 -97 29 -97 61 0 26 25 33 52 14 15 -11 44 -16 85 -16 l62 0 -34 59
c-19 33 -35 66 -35 74 0 17 21 27 56 27 13 0 24 4 24 8 0 5 -78 46 -172 92
-95 46 -221 107 -280 137 l-108 53 0 -57z"/>
<path d="M1586 3492 c-13 -21 -8 -126 8 -170 20 -55 65 -120 113 -162 41 -37
151 -110 165 -110 4 0 8 24 9 53 0 28 6 70 12 91 10 33 18 41 46 49 19 4 30
12 25 17 -28 25 -134 110 -139 110 -3 0 -5 -19 -5 -43 0 -42 -13 -67 -35 -67
-7 0 -47 48 -91 107 -43 59 -84 113 -90 121 -8 11 -13 12 -18 4z"/>
<path d="M3370 3365 c0 -3 10 -24 21 -47 20 -39 22 -41 35 -23 8 10 14 31 14
47 0 25 -3 28 -35 28 -19 0 -35 -2 -35 -5z"/>
<path d="M2304 2621 c-23 -10 -44 -23 -47 -28 -3 -5 -7 -52 -8 -104 l-2 -94
31 -3 c77 -8 120 53 109 158 -11 98 -15 102 -83 71z"/>
<path d="M2560 1863 c-49 -18 -67 -104 -29 -139 21 -19 21 -18 39 4 10 12 26
43 36 68 17 45 17 47 -1 60 -20 15 -22 15 -45 7z"/>
<path d="M1910 1835 c-7 -9 -15 -38 -18 -66 -7 -72 33 -113 72 -73 18 18 22
104 6 135 -13 23 -43 25 -60 4z"/>
<path d="M1300 1315 c0 -52 1 -55 25 -55 32 0 59 40 49 72 -8 28 -22 38 -51
38 -21 0 -23 -5 -23 -55z"/>
<path d="M1457 1352 c-22 -24 -21 -55 1 -75 39 -35 82 -15 82 38 0 17 -5 36
-12 43 -18 18 -53 15 -71 -6z"/>
<path d="M2055 1341 c-8 -26 -3 -34 19 -29 12 2 13 7 2 27 l-14 24 -7 -22z"/>
<path d="M3130 1351 c0 -17 6 -21 31 -21 24 0 30 4 27 18 -2 10 -14 18 -31 20
-22 3 -27 -1 -27 -17z"/>
</g>
</svg>
